# xmcd
#
# Track frame offsets: 
#        150
#        14444
#        33627
#        56183
#        81609
#        103767
#        124735
#        151356
#        166922
#        179756
#
# Disc length: 2608 seconds
#
# Revision: 0
# Processed by: cddbd v1.5.2PL0 Copyright (c) Steve Scherf et al.
# Submitted via: ExactAudioCopy v1.0b3
#
DISCID=8c0a2e0a
DTITLE=Curtis Sumpter Project - Trials And Tribulations
DYEAR=2001
DGENRE=blues
TTITLE0=Ain't Doing Too Bad
TTITLE1=Hip Shakin' Momma
TTITLE2=You're Just Another Reason
TTITLE3=Day Going Down Wrong
TTITLE4=You Don't Know What Love Is
TTITLE5=Let's Straighten It Out
TTITLE6=I'd Rather Go Blind
TTITLE7=Afraid To Love
TTITLE8=Broke
TTITLE9=I've been Talking
EXTD=
EXTT0=
EXTT1=
EXTT2=
EXTT3=
EXTT4=
EXTT5=
EXTT6=
EXTT7=
EXTT8=
EXTT9=
PLAYORDER=
